<?xml version="1.0" standalone="no"?>
<!DOCTYPE svg PUBLIC "-//W3C//DTD SVG 20010904//EN"
 "http://www.w3.org/TR/2001/REC-SVG-20010904/DTD/svg10.dtd">
<svg version="1.0" xmlns="http://www.w3.org/2000/svg"
 width="184.000000pt" height="235.000000pt" viewBox="0 0 184.000000 235.000000"
 preserveAspectRatio="xMidYMid meet">

<g transform="translate(0.000000,235.000000) scale(0.100000,-0.100000)"
fill="#000000" stroke="none">
<path d="M650 1975 l0 -294 -68 28 -68 28 -197 -81 -197 -81 0 -67 0 -68 53
21 c97 40 87 74 87 -295 l0 -326 200 0 200 0 0 -94 c0 -79 -3 -97 -21 -120
-19 -24 -26 -26 -101 -26 -71 0 -84 3 -110 25 -44 37 -109 35 -149 -4 -59 -59
-26 -171 56 -187 36 -6 100 17 109 42 4 11 28 14 101 14 114 0 160 18 196 77
l24 38 3 733 c1 402 6 732 10 732 4 0 71 -30 150 -66 l142 -67 0 -667 c0 -738
0 -738 62 -796 38 -36 85 -54 139 -54 24 0 52 -9 75 -25 67 -46 141 -28 170
41 25 59 -4 125 -62 144 -44 15 -85 5 -114 -26 -16 -16 -34 -24 -57 -24 -81 0
-103 42 -103 200 l0 110 195 0 195 0 0 325 c0 179 2 325 5 325 3 0 32 -11 65
-24 l60 -25 0 68 0 67 -194 81 -194 80 -58 -24 c-31 -12 -59 -23 -61 -23 -2 0
-3 73 -3 163 l0 163 -152 71 c-84 40 -206 96 -270 127 l-118 55 0 -294z m-57
-408 l57 -22 0 -287 0 -288 -130 0 -130 0 2 291 3 291 55 23 c30 13 62 21 70
19 8 -3 41 -15 73 -27z m782 7 l65 -26 0 -294 0 -294 -125 0 -125 0 2 296 3
296 55 23 c30 13 56 24 57 24 2 1 32 -11 68 -25z"/>
<path d="M858 660 c-3 -336 -1 -327 -77 -337 -33 -5 -46 -2 -64 14 -51 47 -94
54 -143 24 -90 -55 -52 -201 52 -201 38 0 94 24 94 40 0 6 24 10 53 10 56 0
121 25 149 56 45 51 48 78 48 394 l0 300 -55 0 -54 0 -3 -300z"/>
</g>
</svg>
